<?xml version="1.0" standalone="no"?>
<!DOCTYPE svg PUBLIC "-//W3C//DTD SVG 20010904//EN"
 "http://www.w3.org/TR/2001/REC-SVG-20010904/DTD/svg10.dtd">
<svg version="1.0" xmlns="http://www.w3.org/2000/svg"
 width="300.000000pt" height="300.000000pt" viewBox="0 0 300.000000 300.000000"
 preserveAspectRatio="xMidYMid meet">
<metadata>
Created by potrace 1.11, written by Peter Selinger 2001-2013
</metadata>
<g transform="translate(0.000000,300.000000) scale(0.100000,-0.100000)"
fill="#000000" stroke="none">
<path d="M1431 2989 c-29 -5 -73 -18 -96 -28 -24 -10 -260 -144 -526 -297
-538 -311 -556 -325 -618 -453 l-36 -76 0 -635 0 -635 36 -76 c61 -127 80
-141 630 -459 272 -157 517 -292 544 -302 66 -23 204 -24 271 -2 27 10 269
143 539 298 416 239 499 290 551 341 70 69 108 142 123 236 15 89 15 1126 0
1205 -17 90 -55 162 -123 229 -52 51 -135 102 -551 342 -270 154 -510 288
-535 296 -63 20 -145 27 -209 16z m184 -107 c75 -27 1004 -568 1048 -610 21
-20 50 -62 65 -92 l27 -55 0 -625 0 -625 -29 -57 c-15 -31 -45 -72 -65 -91
-44 -43 -998 -595 -1060 -614 -59 -17 -147 -17 -202 2 -69 24 -988 558 -1043
606 -32 29 -60 66 -80 109 l-31 65 -3 578 c-2 501 -1 587 13 640 17 68 45 115
95 164 19 18 243 154 499 302 493 284 521 300 561 312 46 14 153 9 205 -9z"/>
<path d="M1414 2852 c-28 -10 -264 -140 -525 -291 -395 -227 -483 -281 -525
-326 -87 -90 -84 -64 -84 -735 0 -671 -3 -645 84 -735 42 -44 131 -99 516
-321 256 -147 483 -275 505 -285 59 -26 132 -32 190 -17 60 17 1015 565 1063
611 18 18 45 57 60 87 l27 55 0 605 0 605 -27 55 c-15 30 -42 70 -60 87 -18
17 -255 160 -527 317 -564 325 -575 330 -697 288z m206 -67 c79 -40 934 -536
965 -560 17 -12 44 -47 60 -76 l30 -54 0 -595 0 -595 -30 -54 c-16 -29 -43
-64 -60 -76 -32 -24 -902 -528 -970 -562 -57 -28 -113 -35 -171 -20 -55 15
-991 552 -1038 595 -16 15 -39 50 -52 77 l-24 50 0 585 0 585 24 50 c12 28 38
64 57 80 51 44 977 577 1029 592 56 16 121 8 180 -22z"/>
<path d="M1420 2764 c-83 -36 -965 -552 -996 -583 -63 -63 -64 -72 -64 -681 0
-614 0 -617 67 -682 36 -34 898 -539 992 -581 32 -14 59 -18 101 -15 53 4 87
22 539 283 266 153 496 289 511 302 16 13 38 43 49 66 21 42 21 56 21 628 0
547 -2 587 -19 624 -10 22 -31 52 -47 66 -30 27 -949 560 -997 578 -40 15
-116 13 -157 -5z m-140 -633 c-102 -32 -145 -56 -159 -88 -14 -30 -6 -50 40
-98 l39 -41 -55 -54 -55 -54 -38 37 c-21 20 -47 37 -58 37 -25 0 -68 -44 -88
-90 -8 -19 -35 -55 -60 -80 l-46 -44 -60 59 c-33 33 -60 64 -59 70 0 5 3 4 6
-2 9 -24 39 -13 78 28 36 37 38 42 23 53 -15 11 -13 14 16 24 39 14 70 46 83
87 7 20 16 29 27 27 9 -2 38 16 65 40 88 79 188 117 311 117 l75 0 -85 -28z
m887 -47 c-8 -8 -67 53 -67 69 0 7 17 -5 37 -25 20 -21 34 -40 30 -44z m-267
-119 c-101 -101 -181 -188 -177 -192 5 -4 87 72 184 169 l176 177 35 -29 c20
-16 40 -26 46 -23 6 3 -81 -87 -194 -201 -161 -163 -213 -209 -244 -218 -30
-9 -56 -32 -114 -100 -41 -48 -78 -88 -81 -88 -4 0 -20 14 -37 31 -26 27 -27
32 -13 42 92 69 169 144 175 171 4 23 61 86 212 239 114 114 209 207 212 207
3 0 -78 -83 -180 -185z m-696 -118 c-2 -7 59 -75 135 -151 108 -108 138 -143
129 -153 -6 -7 -19 -13 -29 -13 -10 0 -21 -5 -25 -11 -4 -7 -64 46 -150 132
l-144 143 37 38 c34 35 58 43 47 15z m-446 -343 c2 -68 0 -83 -14 -88 -28 -11
-34 3 -34 83 0 81 4 94 30 89 12 -3 16 -21 18 -84z m310 29 c-238 -3 -278 -5
-278 -18 0 -13 41 -15 298 -15 262 -1 294 -2 272 -15 -20 -11 -81 -14 -302
-15 l-278 0 0 35 0 35 283 -2 282 -3 -277 -2z m1195 -11 l58 -18 -60 -17 c-86
-24 -622 -25 -641 -2 -11 13 16 15 231 16 231 2 437 12 359 19 -19 1 -161 6
-315 9 l-280 7 295 2 c260 1 302 0 353 -16z m-751 -116 c-10 -12 -23 -33 -30
-48 -6 -15 -29 -36 -50 -47 -40 -20 -92 -73 -92 -94 0 -12 -336 -353 -362
-368 -35 -19 -118 48 -118 95 0 25 345 370 397 398 19 10 44 37 60 67 16 30
39 55 55 62 15 6 34 20 44 30 17 19 19 19 66 -28 47 -46 47 -47 30 -67z m340
-223 c153 -152 281 -274 285 -270 4 4 -71 87 -167 185 l-175 177 178 -175 c97
-96 177 -182 177 -190 0 -9 -16 -32 -36 -51 l-35 -34 -274 280 c-241 246 -273
283 -268 305 6 26 21 50 32 50 3 0 131 -125 283 -277z"/>
<path d="M725 1568 c-9 -24 -1 -128 10 -131 13 -3 19 123 6 136 -7 7 -12 5
-16 -5z"/>
<path d="M1089 1171 c-121 -114 -207 -211 -187 -211 14 0 283 264 300 294 20
36 -14 11 -113 -83z"/>
</g>
</svg>
